<mxfile host="65bd71144e">
    <diagram id="JgWmcChnruEpAp_GRVAy" name="Страница 1">
        <mxGraphModel dx="465" dy="337" grid="1" gridSize="10" guides="1" tooltips="1" connect="1" arrows="1" fold="1" page="1" pageScale="1" pageWidth="827" pageHeight="1169" math="0" shadow="0">
            <root>
                <mxCell id="0"/>
                <mxCell id="1" parent="0"/>
                <mxCell id="2" value="&lt;span style=&quot;font-size: 14px&quot;&gt;Авторизированный&lt;br&gt;пользователь&lt;br&gt;&lt;br&gt;&lt;/span&gt;" style="shape=umlActor;verticalLabelPosition=bottom;verticalAlign=top;html=1;" parent="1" vertex="1">
                    <mxGeometry x="390" y="220" width="90" height="150" as="geometry"/>
                </mxCell>
                <mxCell id="10" style="edgeStyle=orthogonalEdgeStyle;rounded=0;html=1;fontSize=14;endArrow=none;endFill=0;strokeColor=default;exitX=0;exitY=0.5;exitDx=0;exitDy=0;entryX=0;entryY=0.5;entryDx=0;entryDy=0;" parent="1" source="13" target="3" edge="1">
                    <mxGeometry relative="1" as="geometry">
                        <Array as="points">
                            <mxPoint x="540" y="155"/>
                            <mxPoint x="540" y="355"/>
                        </Array>
                        <mxPoint x="570" y="155" as="sourcePoint"/>
                        <mxPoint x="570" y="355" as="targetPoint"/>
                    </mxGeometry>
                </mxCell>
                <mxCell id="3" value="Просмотр актуальной &lt;br&gt;цены&amp;nbsp;футболистов &lt;br&gt;на рынке" style="ellipse;whiteSpace=wrap;html=1;fontSize=14;" parent="1" vertex="1">
                    <mxGeometry x="580" y="320" width="200" height="70" as="geometry"/>
                </mxCell>
                <mxCell id="11" style="edgeStyle=orthogonalEdgeStyle;rounded=0;html=1;fontSize=14;endArrow=none;endFill=0;strokeColor=default;exitX=0;exitY=0.5;exitDx=0;exitDy=0;" parent="1" source="4" edge="1">
                    <mxGeometry relative="1" as="geometry">
                        <mxPoint x="540" y="255" as="targetPoint"/>
                        <mxPoint x="570" y="255" as="sourcePoint"/>
                    </mxGeometry>
                </mxCell>
                <mxCell id="4" value="Добавление игроков&amp;nbsp;&lt;br&gt;в свой состав" style="ellipse;whiteSpace=wrap;html=1;fontSize=14;" parent="1" vertex="1">
                    <mxGeometry x="580" y="220" width="200" height="70" as="geometry"/>
                </mxCell>
                <mxCell id="9" style="edgeStyle=orthogonalEdgeStyle;html=1;exitX=1;exitY=0.5;exitDx=0;exitDy=0;entryX=1;entryY=0.5;entryDx=0;entryDy=0;fontSize=14;strokeColor=default;rounded=0;endArrow=none;endFill=0;" parent="1" source="5" target="7" edge="1">
                    <mxGeometry relative="1" as="geometry">
                        <Array as="points">
                            <mxPoint x="320" y="155"/>
                            <mxPoint x="320" y="355"/>
                        </Array>
                    </mxGeometry>
                </mxCell>
                <mxCell id="5" value="Просмотр базовой информации о &lt;br&gt;футболистах" style="ellipse;whiteSpace=wrap;html=1;fontSize=14;" parent="1" vertex="1">
                    <mxGeometry x="80" y="120" width="200" height="70" as="geometry"/>
                </mxCell>
                <mxCell id="12" style="edgeStyle=orthogonalEdgeStyle;rounded=0;html=1;exitX=1;exitY=0.5;exitDx=0;exitDy=0;fontSize=14;endArrow=none;endFill=0;strokeColor=default;" parent="1" source="6" edge="1">
                    <mxGeometry relative="1" as="geometry">
                        <mxPoint x="320" y="255" as="targetPoint"/>
                    </mxGeometry>
                </mxCell>
                <mxCell id="6" value="Просмотр информации о &lt;br&gt;тренерах" style="ellipse;whiteSpace=wrap;html=1;fontSize=14;" parent="1" vertex="1">
                    <mxGeometry x="80" y="220" width="200" height="70" as="geometry"/>
                </mxCell>
                <mxCell id="7" value="Просмотр базовой информации о &lt;br&gt;клубах" style="ellipse;whiteSpace=wrap;html=1;fontSize=14;" parent="1" vertex="1">
                    <mxGeometry x="80" y="320" width="200" height="70" as="geometry"/>
                </mxCell>
                <mxCell id="15" style="edgeStyle=orthogonalEdgeStyle;html=1;exitX=1;exitY=0.5;exitDx=0;exitDy=0;rounded=0;endArrow=none;endFill=0;" edge="1" parent="1" source="8">
                    <mxGeometry relative="1" as="geometry">
                        <mxPoint x="370" y="300" as="targetPoint"/>
                        <Array as="points">
                            <mxPoint x="320" y="445"/>
                            <mxPoint x="320" y="300"/>
                        </Array>
                    </mxGeometry>
                </mxCell>
                <mxCell id="8" value="Поиск футболистов, тренеров, клубов по параметрам" style="ellipse;whiteSpace=wrap;html=1;fontSize=14;" parent="1" vertex="1">
                    <mxGeometry x="80" y="410" width="200" height="70" as="geometry"/>
                </mxCell>
                <mxCell id="13" value="Выход из аккаунта" style="ellipse;whiteSpace=wrap;html=1;fontSize=14;" vertex="1" parent="1">
                    <mxGeometry x="580" y="120" width="200" height="70" as="geometry"/>
                </mxCell>
                <mxCell id="16" style="edgeStyle=orthogonalEdgeStyle;rounded=0;html=1;exitX=0;exitY=0.5;exitDx=0;exitDy=0;endArrow=none;endFill=0;" edge="1" parent="1" source="14">
                    <mxGeometry relative="1" as="geometry">
                        <mxPoint x="500.0000000000001" y="300" as="targetPoint"/>
                        <Array as="points">
                            <mxPoint x="540" y="445"/>
                            <mxPoint x="540" y="300"/>
                        </Array>
                    </mxGeometry>
                </mxCell>
                <mxCell id="14" value="Просмотр составов&lt;br&gt;других игроков" style="ellipse;whiteSpace=wrap;html=1;fontSize=14;" vertex="1" parent="1">
                    <mxGeometry x="580" y="410" width="200" height="70" as="geometry"/>
                </mxCell>
            </root>
        </mxGraphModel>
    </diagram>
</mxfile>